<?xml version="1.0" standalone="no"?>
<!DOCTYPE svg PUBLIC "-//W3C//DTD SVG 20010904//EN"
 "http://www.w3.org/TR/2001/REC-SVG-20010904/DTD/svg10.dtd">
<svg version="1.0" xmlns="http://www.w3.org/2000/svg"
 width="800.000000pt" height="800.000000pt" viewBox="0 0 800.000000 800.000000"
 preserveAspectRatio="xMidYMid meet">

<g transform="translate(0.000000,800.000000) scale(0.100000,-0.100000)"
fill="#000000" stroke="none">
<path d="M0 4000 l0 -4000 4000 0 4000 0 0 4000 0 4000 -4000 0 -4000 0 0
-4000z m4015 3370 c3 -5 -6 -12 -20 -16 -14 -3 -29 -14 -34 -23 -12 -24 5
-399 20 -417 15 -19 109 -19 154 0 36 16 72 62 82 109 3 15 11 27 18 27 9 0
11 -21 8 -77 -3 -43 -6 -84 -8 -90 -3 -9 -31 -13 -92 -13 -195 -1 -386 -19
-478 -46 -49 -14 -101 -28 -115 -31 -25 -5 -25 -5 4 19 32 27 31 29 -13 85
-15 18 -33 31 -41 29 -137 -37 -158 -47 -164 -78 -9 -45 -8 -55 10 -72 10 -11
24 -14 41 -10 19 5 24 3 21 -6 -4 -13 -66 -33 -138 -46 l-35 -7 23 25 c28 31
38 65 57 203 37 262 51 339 60 341 6 1 84 -85 174 -192 140 -166 168 -195 201
-204 38 -10 69 -5 82 14 10 14 -2 384 -13 414 -5 12 -16 25 -24 27 -49 16 -40
20 60 31 148 15 153 15 160 4z m458 -16 c67 -8 126 -20 132 -25 5 -5 -1 -9
-17 -9 -36 0 -56 -23 -63 -73 -46 -339 -47 -386 -7 -388 72 -5 96 10 203 126
143 156 251 267 255 262 3 -2 11 -67 19 -143 39 -369 42 -383 84 -411 45 -30
59 -27 94 22 68 94 187 292 187 310 0 11 -7 31 -16 43 -9 13 -13 26 -10 29 8
8 145 -77 155 -96 5 -9 11 -45 15 -81 12 -120 34 -291 38 -295 8 -8 128 196
128 217 0 12 -7 30 -17 40 -32 35 -4 29 66 -16 39 -25 71 -49 71 -52 0 -3 -15
-3 -33 0 -27 5 -37 2 -54 -16 -18 -20 -118 -175 -192 -297 -35 -58 -58 -87
-65 -81 -3 3 -12 60 -21 125 -45 356 -55 410 -69 394 -29 -33 -166 -269 -166
-286 0 -12 10 -31 22 -43 43 -40 7 -32 -69 15 -47 29 -121 63 -187 85 -60 20
-111 41 -113 47 -3 7 4 9 16 6 35 -9 48 11 42 64 -5 43 -10 50 -41 64 -19 9
-58 23 -87 29 -58 14 -67 11 -96 -39 -17 -29 -17 -31 1 -49 11 -11 26 -22 33
-24 8 -3 11 -8 8 -12 -4 -4 -40 4 -80 17 -41 13 -100 25 -131 26 -31 1 -80 6
-109 11 -28 6 -67 10 -85 10 -19 0 -34 5 -34 10 0 6 11 10 24 10 43 0 45 8 76
245 27 202 27 204 -10 218 -16 6 -30 15 -30 19 0 10 -9 11 133 -8z m-1380
-250 c16 -31 26 -58 24 -61 -3 -2 -24 8 -46 23 -33 21 -48 25 -78 21 -20 -4
-43 -13 -52 -21 -13 -14 -12 -20 8 -58 13 -24 57 -108 99 -187 42 -79 82 -146
90 -148 7 -3 24 -1 38 5 18 9 24 9 24 -1 0 -6 -49 -38 -110 -69 -108 -58 -155
-74 -114 -40 11 10 23 24 26 32 5 13 -65 157 -157 325 -38 68 -38 69 -75 50
-38 -20 -62 -71 -54 -114 10 -48 -12 -38 -41 19 -14 27 -25 55 -25 62 0 7 19
22 42 33 24 11 110 57 193 102 82 45 157 82 165 82 8 0 28 -25 43 -55z m-547
-256 c-26 -15 -19 -51 22 -104 195 -258 235 -297 269 -263 6 6 16 8 22 4 10
-5 -92 -93 -190 -164 -22 -16 -26 1 -4 19 27 22 16 46 -61 147 -185 237 -201
252 -231 222 -6 -6 -17 -9 -24 -7 -7 2 37 43 97 91 60 48 111 82 113 76 2 -7
-4 -16 -13 -21z m1360 -480 c24 -23 52 -53 61 -68 14 -24 21 -26 77 -26 65 0
100 -13 156 -60 28 -24 42 -28 99 -29 37 -1 73 -5 79 -9 7 -4 12 -27 12 -51 0
-36 -4 -47 -22 -56 l-23 -12 23 -10 c12 -6 22 -14 23 -19 5 -61 0 -111 -12
-119 -12 -7 -11 -13 1 -36 22 -41 17 -578 -5 -569 -25 9 -28 -15 -6 -45 17
-23 21 -42 21 -109 0 -64 -3 -80 -15 -80 -19 0 -19 -6 3 -27 14 -15 16 -32 14
-95 l-4 -78 -39 0 c-21 0 -39 -3 -39 -7 1 -5 20 -22 43 -39 40 -30 43 -34 39
-74 -4 -37 -6 -41 -26 -35 -49 15 -66 17 -66 6 0 -6 5 -11 12 -11 22 0 78 -51
78 -72 0 -14 -5 -18 -16 -14 -9 3 -28 9 -42 13 -25 6 -24 4 16 -42 37 -42 53
-75 37 -75 -8 0 -111 44 -196 84 -42 20 -82 36 -88 36 -15 0 -14 -25 4 -95 31
-121 105 -236 221 -345 l64 -59 -2 -858 -3 -857 -76 114 c-94 141 -118 184
-152 278 -29 78 -34 144 -15 201 27 85 62 177 71 189 5 7 7 15 4 19 -4 3 -15
-5 -25 -18 -22 -26 -81 -31 -109 -8 -8 8 -48 63 -88 124 -41 61 -92 128 -115
149 -45 40 -168 122 -265 176 -100 55 -189 111 -212 133 l-23 20 0 622 0 622
63 74 c179 210 313 439 287 489 -24 45 -66 55 -212 53 l-138 -2 0 164 0 165
93 46 c173 87 211 127 147 154 -21 9 -54 11 -104 6 -57 -5 -76 -3 -85 7 -18
22 10 39 77 46 56 7 57 7 30 21 -16 7 -28 17 -28 22 0 14 169 9 233 -8 71 -18
72 -17 81 67 8 72 20 74 82 17z m484 -4109 l0 -111 -37 -51 c-21 -28 -56 -87
-79 -131 -34 -68 -46 -83 -72 -91 -31 -9 -32 -11 -32 -63 0 -47 -4 -58 -30
-82 -55 -51 -146 -90 -212 -90 -62 0 -63 1 -58 60 3 40 37 129 72 189 21 35
104 126 224 246 105 105 194 200 198 213 16 50 26 16 26 -89z m1175 -506 c-22
-51 -19 -56 130 -223 81 -91 151 -166 156 -168 5 -2 9 -10 9 -18 0 -10 -7 -13
-22 -9 -23 5 -97 17 -213 35 -33 5 -112 19 -175 29 -63 11 -116 18 -118 17 -5
-6 210 -241 229 -250 12 -6 28 -5 45 3 49 22 39 0 -26 -59 -64 -57 -95 -70
-65 -27 8 12 15 29 15 38 0 9 -58 82 -128 160 l-128 144 -47 -1 c-26 0 -46 3
-45 7 2 3 29 30 61 59 41 38 66 53 85 52 15 0 92 -12 171 -27 79 -14 153 -25
163 -23 15 2 5 19 -52 83 -79 90 -99 103 -134 87 -45 -20 -37 2 21 55 61 55
80 65 68 36z m-2835 -63 c37 -27 65 -61 80 -97 9 -24 19 -33 36 -33 13 0 24
-3 24 -6 0 -3 -21 -30 -47 -60 -55 -64 -80 -72 -57 -19 31 76 10 150 -51 179
-33 16 -38 16 -61 2 -32 -22 -32 -67 2 -160 63 -174 12 -282 -128 -273 -71 4
-118 38 -163 116 -21 38 -35 51 -49 49 -10 -2 -21 2 -23 7 -4 12 124 142 132
134 3 -3 -4 -24 -15 -47 -26 -53 -25 -108 1 -152 28 -45 48 -59 84 -60 38 0
51 9 64 41 11 29 3 74 -29 159 -24 65 -26 130 -5 170 16 30 57 64 90 73 31 8
87 -3 115 -23z m357 -284 c89 -53 165 -101 168 -107 8 -12 -54 -121 -65 -114
-4 3 -6 23 -3 46 3 23 1 50 -6 63 -12 21 -69 62 -75 54 -20 -22 -216 -359
-216 -370 0 -8 9 -23 20 -33 11 -10 18 -20 16 -23 -6 -5 -214 116 -222 130 -9
15 5 23 18 10 7 -7 21 -12 33 -12 21 0 43 32 184 265 l60 100 -22 17 c-12 9
-33 19 -46 21 -25 5 -91 -20 -91 -35 0 -4 -7 -8 -15 -8 -21 0 -19 6 21 67 34
51 37 53 57 40 12 -7 95 -57 184 -111z m2118 -57 c91 -43 144 -133 145 -243 0
-113 -51 -190 -159 -240 -64 -29 -171 -28 -226 1 -114 61 -170 196 -135 324
14 51 74 116 139 149 72 38 168 41 236 9z m-1761 -151 c3 -29 13 -143 21 -252
10 -141 19 -206 30 -222 24 -38 19 -45 -22 -30 -21 8 -71 26 -110 41 -75 27
-94 45 -45 42 26 -2 27 0 30 54 l3 56 -73 27 c-40 14 -80 26 -89 26 -20 0 -69
-68 -62 -86 3 -7 13 -16 24 -19 20 -7 26 -25 8 -25 -6 0 -40 10 -75 22 -62 21
-86 48 -44 48 34 0 58 21 224 200 88 93 163 170 167 170 3 0 10 -24 13 -52z
m1302 18 c-53 -32 -52 -26 -27 -122 12 -49 26 -100 31 -114 4 -14 15 -54 25
-90 29 -111 40 -130 77 -130 40 0 27 -14 -27 -28 -64 -16 -158 -42 -177 -48
-27 -8 -21 11 7 24 36 17 37 15 -41 297 -39 141 -41 145 -80 145 -63 0 -35 16
89 51 115 33 164 39 123 15z m-932 -65 c38 -3 71 -11 73 -17 2 -7 -7 -11 -22
-11 -15 0 -31 -5 -37 -11 -15 -15 -57 -393 -46 -414 10 -20 82 -33 135 -25 43
7 67 28 101 86 31 54 39 40 22 -42 -19 -89 -25 -99 -63 -93 -18 3 -104 12
-192 21 -88 9 -170 19 -182 21 -30 6 -29 24 1 24 36 0 45 19 55 116 5 49 15
139 22 201 13 120 8 143 -32 143 -11 0 -19 5 -19 11 0 8 17 9 58 4 31 -5 88
-11 126 -14z m506 -21 c0 -5 -8 -10 -19 -10 -38 0 -42 -20 -31 -146 19 -213
29 -287 42 -296 15 -10 111 -1 144 14 29 13 54 50 69 101 19 63 30 47 30 -42
l0 -85 -30 -7 c-16 -4 -106 -15 -200 -23 -93 -9 -177 -17 -185 -19 -8 -1 -17
3 -20 8 -3 6 5 11 17 13 33 5 37 35 23 174 -27 280 -29 288 -79 288 -53 0 -5
16 82 26 123 15 157 16 157 4z"/>
<path d="M3361 7004 c-7 -42 -11 -78 -8 -80 7 -7 116 26 122 37 6 9 -83 119
-96 119 -3 0 -12 -34 -18 -76z"/>
<path d="M4844 7068 c-11 -13 -35 -40 -53 -61 -19 -21 -31 -40 -29 -43 6 -6
110 -44 120 -44 8 0 -2 152 -11 163 -4 4 -16 -3 -27 -15z"/>
<path d="M3488 5994 c-16 -8 -28 -16 -28 -19 0 -5 56 11 77 24 17 10 17 10 -2
10 -11 0 -32 -7 -47 -15z"/>
<path d="M3495 4945 c-16 -9 -30 -17 -31 -18 -1 -1 40 -3 92 -3 83 -1 92 0 75
12 -32 23 -102 27 -136 9z"/>
<path d="M4282 3473 c-10 -19 -42 -154 -42 -175 0 -12 5 -3 43 83 22 51 32
109 18 109 -5 0 -14 -8 -19 -17z"/>
<path d="M4995 1321 c-27 -11 -51 -40 -65 -75 -32 -85 77 -307 170 -346 98
-41 183 68 139 177 -59 145 -108 215 -166 239 -36 16 -49 16 -78 5z"/>
<path d="M3270 1035 c-33 -34 -50 -58 -45 -64 8 -7 100 -41 112 -41 2 0 3 36
3 80 0 44 -4 80 -8 80 -4 0 -32 -25 -62 -55z"/>
</g>
</svg>
